<svg width="18" height="19" viewBox="0 0 18 19" fill="none" xmlns="http://www.w3.org/2000/svg">
<path fill-rule="evenodd" clip-rule="evenodd" d="M9.82002 0.389584C10.5123 -0.00251433 11.3321 -0.103528 12.0989 0.108766C12.4389 0.202895 12.7294 0.366872 13.0032 0.552082C13.2633 0.727981 13.5617 0.96087 13.9074 1.23078L13.9579 1.27016C14.3037 1.54006 14.602 1.77295 14.8358 1.98255C15.082 2.20324 15.3116 2.44526 15.4854 2.75223C15.8775 3.44456 15.9785 4.26429 15.7662 5.0311C15.6721 5.37109 15.5081 5.66161 15.3229 5.93546C15.147 6.19555 14.9141 6.49391 14.6442 6.83969L7.5414 15.939C7.52344 15.962 7.50573 15.9847 7.48823 16.0071C7.15477 16.4347 6.90267 16.7579 6.59062 17.0234C6.32647 17.2481 6.03423 17.4375 5.72123 17.5868C5.35147 17.7632 4.95344 17.8613 4.42696 17.9911C4.39936 17.9979 4.3714 18.0048 4.34308 18.0118L2.21826 18.5363C2.07111 18.5727 1.90313 18.6142 1.75496 18.637C1.58979 18.6624 1.33401 18.6854 1.05151 18.5949C0.711906 18.4862 0.422152 18.26 0.23421 17.957C0.0778715 17.7049 0.0380913 17.4512 0.0226183 17.2848C0.00873743 17.1355 0.00824712 16.9625 0.00781755 16.8109C0.00779096 16.8015 0.00776462 16.7922 0.00773535 16.783L0.000864129 14.6223C0.000771324 14.5931 0.00066797 14.5643 0.000565927 14.5359C-0.00138034 13.9937 -0.00285175 13.5837 0.0785175 13.1822C0.147394 12.8423 0.260178 12.5128 0.414033 12.202C0.595792 11.8349 0.848159 11.5118 1.18198 11.0846C1.19948 11.0621 1.21721 11.0395 1.23517 11.0164L8.33794 1.91713C8.60785 1.57134 8.84073 1.27297 9.05034 1.03919C9.27103 0.793037 9.51305 0.563436 9.82002 0.389584ZM11.5652 2.03626C11.3096 1.9655 11.0364 1.99917 10.8056 2.12987C10.7664 2.15206 10.692 2.20413 10.5395 2.37429C10.3809 2.55114 10.19 2.79489 9.89483 3.17297L13.0479 5.63424C13.3431 5.25616 13.5332 5.01175 13.6662 4.81499C13.7943 4.6257 13.8267 4.54087 13.8387 4.49746C13.9095 4.24186 13.8758 3.96862 13.7451 3.73784C13.7229 3.69865 13.6709 3.62424 13.5007 3.47168C13.3239 3.31312 13.0801 3.12217 12.702 2.82705C12.3239 2.53192 12.0795 2.34183 11.8828 2.20875C11.6935 2.08073 11.6087 2.04828 11.5652 2.03626ZM11.8173 7.2108L8.6642 4.74953L2.81173 12.2471C2.40197 12.772 2.28642 12.9278 2.20643 13.0893C2.1295 13.2447 2.07311 13.4095 2.03867 13.5794C2.00287 13.7561 1.99874 13.95 2.00085 14.6159L2.00694 16.5284L3.86371 16.07C4.51023 15.9104 4.69731 15.8594 4.86003 15.7817C5.01653 15.7071 5.16265 15.6124 5.29473 15.5C5.43205 15.3832 5.55509 15.2333 5.96484 14.7084L11.8173 7.2108ZM8.64614 17.7928C8.64614 17.2405 9.09386 16.7928 9.64614 16.7928H16.6461C17.1984 16.7928 17.6461 17.2405 17.6461 17.7928C17.6461 18.3451 17.1984 18.7928 16.6461 18.7928H9.64614C9.09386 18.7928 8.64614 18.3451 8.64614 17.7928Z" fill="#1F2329"/>
</svg>
